<mxfile host="65bd71144e" pages="2">
    <diagram id="V7DGzK6TTjDBdNX_tZ4m" name="(b) 小題">
        <mxGraphModel dx="987" dy="596" grid="1" gridSize="10" guides="1" tooltips="1" connect="1" arrows="1" fold="1" page="1" pageScale="1" pageWidth="827" pageHeight="1169" background="#ffffff" math="0" shadow="0">
            <root>
                <mxCell id="0"/>
                <mxCell id="1" parent="0"/>
                <mxCell id="r3nBYDqX5I5upEEZxb0r-1" value="&lt;b&gt;&lt;font style=&quot;font-size: 16px&quot;&gt;系統&lt;/font&gt;&lt;/b&gt;" style="shape=umlFrame;whiteSpace=wrap;html=1;strokeColor=#003366;fontColor=#000000;swimlaneFillColor=#FFFFCC;fillColor=#CCCCCC;opacity=40;" parent="1" vertex="1">
                    <mxGeometry x="160" y="80" width="520" height="640" as="geometry"/>
                </mxCell>
                <mxCell id="r3nBYDqX5I5upEEZxb0r-12" style="edgeStyle=none;html=1;entryX=0;entryY=0.5;entryDx=0;entryDy=0;fontSize=20;fontColor=#00331A;strokeColor=#666666;strokeWidth=2;endArrow=none;endFill=0;" parent="1" source="r3nBYDqX5I5upEEZxb0r-3" target="r3nBYDqX5I5upEEZxb0r-5" edge="1">
                    <mxGeometry relative="1" as="geometry"/>
                </mxCell>
                <mxCell id="r3nBYDqX5I5upEEZxb0r-3" value="&lt;b&gt;&lt;font style=&quot;font-size: 16px&quot;&gt;未註冊人員&lt;/font&gt;&lt;/b&gt;" style="shape=umlActor;verticalLabelPosition=bottom;verticalAlign=top;html=1;labelBackgroundColor=none;fontColor=#000000;strokeColor=#000000;fillColor=none;strokeWidth=2;" parent="1" vertex="1">
                    <mxGeometry x="60" y="100" width="30" height="60" as="geometry"/>
                </mxCell>
                <mxCell id="r3nBYDqX5I5upEEZxb0r-4" value="個人資料作業" style="ellipse;labelBackgroundColor=none;fontSize=20;fontColor=#00331A;strokeColor=#00331A;strokeWidth=2;fillColor=#CCCCCC;fontStyle=1" parent="1" vertex="1">
                    <mxGeometry x="240" y="248" width="160" height="80" as="geometry"/>
                </mxCell>
                <mxCell id="r3nBYDqX5I5upEEZxb0r-17" value="&lt;font color=&quot;#666666&quot; style=&quot;font-size: 14px&quot;&gt;&amp;lt;&amp;lt;include&amp;gt;&amp;gt;&lt;/font&gt;" style="edgeStyle=none;html=1;entryX=0.5;entryY=0;entryDx=0;entryDy=0;fontSize=16;fontColor=#00331A;endArrow=open;endFill=0;strokeColor=#666666;strokeWidth=2;dashed=1;labelBackgroundColor=none;align=left;" parent="1" source="r3nBYDqX5I5upEEZxb0r-5" target="r3nBYDqX5I5upEEZxb0r-4" edge="1">
                    <mxGeometry relative="1" as="geometry"/>
                </mxCell>
                <mxCell id="r3nBYDqX5I5upEEZxb0r-5" value="註冊作業" style="ellipse;labelBackgroundColor=none;fontSize=20;fontColor=#00331A;strokeColor=#00331A;strokeWidth=2;fillColor=#CCCCCC;fontStyle=1" parent="1" vertex="1">
                    <mxGeometry x="240" y="120" width="160" height="80" as="geometry"/>
                </mxCell>
                <mxCell id="r3nBYDqX5I5upEEZxb0r-7" value="會費作業" style="ellipse;labelBackgroundColor=none;fontSize=20;fontColor=#00331A;strokeColor=#00331A;strokeWidth=2;fillColor=#CCCCCC;fontStyle=1" parent="1" vertex="1">
                    <mxGeometry x="241" y="384" width="160" height="80" as="geometry"/>
                </mxCell>
                <mxCell id="r3nBYDqX5I5upEEZxb0r-8" value="簡訊作業" style="ellipse;labelBackgroundColor=none;fontSize=20;fontColor=#00331A;strokeColor=#00331A;strokeWidth=2;fillColor=#CCCCCC;fontStyle=1" parent="1" vertex="1">
                    <mxGeometry x="502" y="384" width="160" height="80" as="geometry"/>
                </mxCell>
                <mxCell id="r3nBYDqX5I5upEEZxb0r-9" value="金流作業" style="ellipse;labelBackgroundColor=none;fontSize=20;fontColor=#00331A;strokeColor=#00331A;strokeWidth=2;fillColor=#CCCCCC;fontStyle=1" parent="1" vertex="1">
                    <mxGeometry x="502" y="521" width="160" height="80" as="geometry"/>
                </mxCell>
                <mxCell id="r3nBYDqX5I5upEEZxb0r-44" style="edgeStyle=none;html=1;entryX=0;entryY=0.5;entryDx=0;entryDy=0;labelBackgroundColor=none;fontSize=14;fontColor=#666666;endArrow=none;endFill=0;strokeColor=#666666;strokeWidth=2;exitX=0.5;exitY=1;exitDx=0;exitDy=0;" parent="1" source="r3nBYDqX5I5upEEZxb0r-10" target="r3nBYDqX5I5upEEZxb0r-35" edge="1">
                    <mxGeometry relative="1" as="geometry">
                        <Array as="points">
                            <mxPoint x="320" y="675"/>
                        </Array>
                    </mxGeometry>
                </mxCell>
                <mxCell id="r3nBYDqX5I5upEEZxb0r-10" value="辨識串接作業" style="ellipse;labelBackgroundColor=none;fontSize=20;fontColor=#00331A;strokeColor=#00331A;strokeWidth=2;fillColor=#CCCCCC;fontStyle=1" parent="1" vertex="1">
                    <mxGeometry x="240" y="521" width="160" height="80" as="geometry"/>
                </mxCell>
                <mxCell id="r3nBYDqX5I5upEEZxb0r-19" style="edgeStyle=none;html=1;entryX=0;entryY=0.5;entryDx=0;entryDy=0;labelBackgroundColor=none;fontSize=14;fontColor=#666666;endArrow=none;endFill=0;strokeColor=#666666;strokeWidth=2;" parent="1" source="r3nBYDqX5I5upEEZxb0r-18" target="r3nBYDqX5I5upEEZxb0r-4" edge="1">
                    <mxGeometry relative="1" as="geometry"/>
                </mxCell>
                <mxCell id="r3nBYDqX5I5upEEZxb0r-20" style="edgeStyle=none;html=1;entryX=0;entryY=0.5;entryDx=0;entryDy=0;labelBackgroundColor=none;fontSize=14;fontColor=#666666;endArrow=none;endFill=0;strokeColor=#666666;strokeWidth=2;" parent="1" source="r3nBYDqX5I5upEEZxb0r-18" target="r3nBYDqX5I5upEEZxb0r-7" edge="1">
                    <mxGeometry relative="1" as="geometry"/>
                </mxCell>
                <mxCell id="r3nBYDqX5I5upEEZxb0r-21" style="edgeStyle=none;html=1;entryX=0;entryY=0.5;entryDx=0;entryDy=0;labelBackgroundColor=none;fontSize=14;fontColor=#666666;endArrow=none;endFill=0;strokeColor=#666666;strokeWidth=2;" parent="1" source="r3nBYDqX5I5upEEZxb0r-18" target="r3nBYDqX5I5upEEZxb0r-10" edge="1">
                    <mxGeometry relative="1" as="geometry"/>
                </mxCell>
                <mxCell id="r3nBYDqX5I5upEEZxb0r-18" value="&lt;b&gt;&lt;font style=&quot;font-size: 16px&quot;&gt;會員&lt;/font&gt;&lt;/b&gt;" style="shape=umlActor;verticalLabelPosition=bottom;verticalAlign=top;html=1;labelBackgroundColor=none;fontColor=#000000;strokeColor=#000000;fillColor=none;strokeWidth=2;" parent="1" vertex="1">
                    <mxGeometry x="60" y="240" width="30" height="60" as="geometry"/>
                </mxCell>
                <mxCell id="r3nBYDqX5I5upEEZxb0r-24" style="edgeStyle=none;html=1;entryX=0;entryY=0.5;entryDx=0;entryDy=0;labelBackgroundColor=none;fontSize=14;fontColor=#666666;endArrow=none;endFill=0;strokeColor=#666666;strokeWidth=2;" parent="1" source="r3nBYDqX5I5upEEZxb0r-22" target="r3nBYDqX5I5upEEZxb0r-4" edge="1">
                    <mxGeometry relative="1" as="geometry"/>
                </mxCell>
                <mxCell id="r3nBYDqX5I5upEEZxb0r-25" style="edgeStyle=none;html=1;labelBackgroundColor=none;fontSize=14;fontColor=#666666;endArrow=none;endFill=0;strokeColor=#666666;strokeWidth=2;" parent="1" source="r3nBYDqX5I5upEEZxb0r-22" edge="1">
                    <mxGeometry relative="1" as="geometry">
                        <mxPoint x="240" y="560" as="targetPoint"/>
                    </mxGeometry>
                </mxCell>
                <mxCell id="r3nBYDqX5I5upEEZxb0r-22" value="&lt;b&gt;&lt;font style=&quot;font-size: 16px&quot;&gt;業務員&lt;/font&gt;&lt;/b&gt;" style="shape=umlActor;verticalLabelPosition=bottom;verticalAlign=top;html=1;labelBackgroundColor=none;fontColor=#000000;strokeColor=#000000;fillColor=none;strokeWidth=2;" parent="1" vertex="1">
                    <mxGeometry x="60" y="384" width="30" height="60" as="geometry"/>
                </mxCell>
                <mxCell id="r3nBYDqX5I5upEEZxb0r-26" style="edgeStyle=none;html=1;entryX=0;entryY=0.5;entryDx=0;entryDy=0;labelBackgroundColor=none;fontSize=14;fontColor=#666666;endArrow=none;endFill=0;strokeColor=#666666;strokeWidth=2;" parent="1" source="r3nBYDqX5I5upEEZxb0r-23" target="r3nBYDqX5I5upEEZxb0r-10" edge="1">
                    <mxGeometry relative="1" as="geometry"/>
                </mxCell>
                <mxCell id="r3nBYDqX5I5upEEZxb0r-23" value="&lt;b&gt;&lt;font style=&quot;font-size: 16px&quot;&gt;系統管理員&lt;/font&gt;&lt;/b&gt;" style="shape=umlActor;verticalLabelPosition=bottom;verticalAlign=top;html=1;labelBackgroundColor=none;fontColor=#000000;strokeColor=#000000;fillColor=none;strokeWidth=2;" parent="1" vertex="1">
                    <mxGeometry x="60" y="531" width="30" height="60" as="geometry"/>
                </mxCell>
                <mxCell id="r3nBYDqX5I5upEEZxb0r-29" value="&lt;font color=&quot;#666666&quot; style=&quot;font-size: 14px&quot;&gt;&amp;lt;&amp;lt;include&amp;gt;&amp;gt;&lt;/font&gt;" style="edgeStyle=none;html=1;fontSize=16;fontColor=#00331A;endArrow=open;endFill=0;strokeColor=#666666;strokeWidth=2;dashed=1;labelBackgroundColor=none;align=center;verticalAlign=bottom;" parent="1" source="r3nBYDqX5I5upEEZxb0r-7" target="r3nBYDqX5I5upEEZxb0r-8" edge="1">
                    <mxGeometry relative="1" as="geometry">
                        <mxPoint x="330" y="210" as="sourcePoint"/>
                        <mxPoint x="330" y="258" as="targetPoint"/>
                    </mxGeometry>
                </mxCell>
                <mxCell id="r3nBYDqX5I5upEEZxb0r-30" value="&lt;font color=&quot;#666666&quot; style=&quot;font-size: 14px&quot;&gt;&amp;lt;&amp;lt;include&amp;gt;&amp;gt;&lt;/font&gt;" style="edgeStyle=none;html=1;fontSize=16;fontColor=#00331A;endArrow=open;endFill=0;strokeColor=#666666;strokeWidth=2;dashed=1;labelBackgroundColor=none;align=left;verticalAlign=bottom;exitX=1;exitY=0.5;exitDx=0;exitDy=0;entryX=0;entryY=0.5;entryDx=0;entryDy=0;" parent="1" source="r3nBYDqX5I5upEEZxb0r-7" target="r3nBYDqX5I5upEEZxb0r-9" edge="1">
                    <mxGeometry relative="1" as="geometry">
                        <mxPoint x="411.0000000000018" y="433.9999999999999" as="sourcePoint"/>
                        <mxPoint x="490" y="433.9999999999999" as="targetPoint"/>
                    </mxGeometry>
                </mxCell>
                <mxCell id="r3nBYDqX5I5upEEZxb0r-31" value="&lt;font color=&quot;#666666&quot; style=&quot;font-size: 14px&quot;&gt;&amp;lt;&amp;lt;include&amp;gt;&amp;gt;&lt;/font&gt;" style="edgeStyle=none;html=1;fontSize=16;fontColor=#00331A;endArrow=open;endFill=0;strokeColor=#666666;strokeWidth=2;dashed=1;labelBackgroundColor=none;align=left;verticalAlign=middle;exitX=0.5;exitY=0;exitDx=0;exitDy=0;entryX=0.5;entryY=1;entryDx=0;entryDy=0;" parent="1" source="r3nBYDqX5I5upEEZxb0r-10" target="r3nBYDqX5I5upEEZxb0r-7" edge="1">
                    <mxGeometry relative="1" as="geometry">
                        <mxPoint x="411.0000000000018" y="433.9999999999999" as="sourcePoint"/>
                        <mxPoint x="490" y="571" as="targetPoint"/>
                    </mxGeometry>
                </mxCell>
                <mxCell id="r3nBYDqX5I5upEEZxb0r-32" value="&lt;font color=&quot;#666666&quot; style=&quot;font-size: 14px&quot;&gt;&amp;lt;&amp;lt;include&amp;gt;&amp;gt;&lt;/font&gt;" style="edgeStyle=none;html=1;fontSize=16;fontColor=#00331A;endArrow=open;endFill=0;strokeColor=#666666;strokeWidth=2;dashed=1;labelBackgroundColor=none;align=left;verticalAlign=middle;entryX=0.5;entryY=1;entryDx=0;entryDy=0;exitX=0.5;exitY=0;exitDx=0;exitDy=0;" parent="1" source="r3nBYDqX5I5upEEZxb0r-7" target="r3nBYDqX5I5upEEZxb0r-4" edge="1">
                    <mxGeometry relative="1" as="geometry">
                        <mxPoint x="320" y="380" as="sourcePoint"/>
                        <mxPoint x="331" y="473.9999999999998" as="targetPoint"/>
                    </mxGeometry>
                </mxCell>
                <mxCell id="r3nBYDqX5I5upEEZxb0r-42" style="edgeStyle=none;html=1;entryX=1;entryY=0.5;entryDx=0;entryDy=0;labelBackgroundColor=none;fontSize=14;fontColor=#666666;endArrow=none;endFill=0;strokeColor=#666666;strokeWidth=2;" parent="1" source="r3nBYDqX5I5upEEZxb0r-33" target="r3nBYDqX5I5upEEZxb0r-8" edge="1">
                    <mxGeometry relative="1" as="geometry"/>
                </mxCell>
                <mxCell id="r3nBYDqX5I5upEEZxb0r-33" value="«actor»&lt;br&gt;&lt;b&gt;華鐘電信&lt;/b&gt;" style="html=1;shadow=0;glass=0;labelBackgroundColor=none;fontSize=14;fontColor=#00331A;strokeColor=#00331A;strokeWidth=2;fillColor=#CCCCCC;gradientColor=none;opacity=50;" parent="1" vertex="1">
                    <mxGeometry x="700" y="399" width="110" height="50" as="geometry"/>
                </mxCell>
                <mxCell id="r3nBYDqX5I5upEEZxb0r-43" style="edgeStyle=none;html=1;labelBackgroundColor=none;fontSize=14;fontColor=#666666;endArrow=none;endFill=0;strokeColor=#666666;strokeWidth=2;" parent="1" source="r3nBYDqX5I5upEEZxb0r-34" target="r3nBYDqX5I5upEEZxb0r-9" edge="1">
                    <mxGeometry relative="1" as="geometry"/>
                </mxCell>
                <mxCell id="r3nBYDqX5I5upEEZxb0r-34" value="«actor»&lt;br&gt;&lt;b&gt;騎華銀行&lt;/b&gt;" style="html=1;shadow=0;glass=0;labelBackgroundColor=none;fontSize=14;fontColor=#00331A;strokeColor=#00331A;strokeWidth=2;fillColor=#CCCCCC;gradientColor=none;opacity=50;" parent="1" vertex="1">
                    <mxGeometry x="700" y="536" width="110" height="50" as="geometry"/>
                </mxCell>
                <mxCell id="r3nBYDqX5I5upEEZxb0r-35" value="«actor»&lt;br&gt;&lt;b&gt;影像辨識系統&lt;/b&gt;" style="html=1;shadow=0;glass=0;labelBackgroundColor=none;fontSize=14;fontColor=#00331A;strokeColor=#00331A;strokeWidth=2;fillColor=#CCCCCC;gradientColor=none;opacity=50;" parent="1" vertex="1">
                    <mxGeometry x="700" y="650" width="110" height="50" as="geometry"/>
                </mxCell>
                <mxCell id="r3nBYDqX5I5upEEZxb0r-39" style="edgeStyle=none;html=1;entryX=1;entryY=0.5;entryDx=0;entryDy=0;labelBackgroundColor=none;fontSize=14;fontColor=#666666;endArrow=none;endFill=0;strokeColor=#666666;strokeWidth=2;" parent="1" source="r3nBYDqX5I5upEEZxb0r-36" target="r3nBYDqX5I5upEEZxb0r-5" edge="1">
                    <mxGeometry relative="1" as="geometry"/>
                </mxCell>
                <mxCell id="r3nBYDqX5I5upEEZxb0r-41" style="edgeStyle=none;html=1;entryX=1;entryY=0.5;entryDx=0;entryDy=0;labelBackgroundColor=none;fontSize=14;fontColor=#666666;endArrow=none;endFill=0;strokeColor=#666666;strokeWidth=2;" parent="1" source="r3nBYDqX5I5upEEZxb0r-36" target="r3nBYDqX5I5upEEZxb0r-4" edge="1">
                    <mxGeometry relative="1" as="geometry"/>
                </mxCell>
                <mxCell id="r3nBYDqX5I5upEEZxb0r-36" value="&lt;b&gt;&lt;font style=&quot;font-size: 16px&quot;&gt;業務員&lt;/font&gt;&lt;/b&gt;" style="shape=umlActor;verticalLabelPosition=bottom;verticalAlign=top;html=1;labelBackgroundColor=none;fontColor=#000000;strokeColor=#000000;fillColor=none;strokeWidth=2;" parent="1" vertex="1">
                    <mxGeometry x="740" y="100" width="30" height="60" as="geometry"/>
                </mxCell>
                <mxCell id="r3nBYDqX5I5upEEZxb0r-40" style="edgeStyle=none;html=1;entryX=1;entryY=0.5;entryDx=0;entryDy=0;labelBackgroundColor=none;fontSize=14;fontColor=#666666;endArrow=none;endFill=0;strokeColor=#666666;strokeWidth=2;" parent="1" source="r3nBYDqX5I5upEEZxb0r-37" target="r3nBYDqX5I5upEEZxb0r-5" edge="1">
                    <mxGeometry relative="1" as="geometry"/>
                </mxCell>
                <mxCell id="r3nBYDqX5I5upEEZxb0r-37" value="&lt;b&gt;&lt;font style=&quot;font-size: 16px&quot;&gt;系統管理員&lt;/font&gt;&lt;/b&gt;" style="shape=umlActor;verticalLabelPosition=bottom;verticalAlign=top;html=1;labelBackgroundColor=none;fontColor=#000000;strokeColor=#000000;fillColor=none;strokeWidth=2;" parent="1" vertex="1">
                    <mxGeometry x="740" y="247" width="30" height="60" as="geometry"/>
                </mxCell>
                <mxCell id="r3nBYDqX5I5upEEZxb0r-45" value="&lt;font color=&quot;#666666&quot; style=&quot;font-size: 14px&quot;&gt;&amp;lt;&amp;lt;include&amp;gt;&amp;gt;&lt;/font&gt;" style="edgeStyle=none;html=1;fontSize=16;fontColor=#00331A;endArrow=open;endFill=0;strokeColor=#666666;strokeWidth=2;dashed=1;labelBackgroundColor=none;align=right;verticalAlign=middle;exitX=0.5;exitY=0;exitDx=0;exitDy=0;" parent="1" source="r3nBYDqX5I5upEEZxb0r-10" edge="1">
                    <mxGeometry relative="1" as="geometry">
                        <mxPoint x="330" y="531" as="sourcePoint"/>
                        <mxPoint x="320" y="330" as="targetPoint"/>
                        <Array as="points">
                            <mxPoint x="220" y="420"/>
                        </Array>
                    </mxGeometry>
                </mxCell>
            </root>
        </mxGraphModel>
    </diagram>
    <diagram id="BZPio_Jj3uGKRLuExNS9" name="(d) 小題">
        <mxGraphModel dx="987" dy="596" grid="0" gridSize="10" guides="1" tooltips="1" connect="1" arrows="1" fold="1" page="1" pageScale="1" pageWidth="827" pageHeight="1169" background="#ffffff" math="0" shadow="0">
            <root>
                <mxCell id="Udvxj7O8KsXDByOM07qp-0"/>
                <mxCell id="Udvxj7O8KsXDByOM07qp-1" parent="Udvxj7O8KsXDByOM07qp-0"/>
                <mxCell id="cCbDdbQNW0R_neSOV1xm-21" value="業務員" style="html=1;fillColor=#CCCCCC;fontColor=#000000;strokeColor=#000000;fontStyle=1;fontSize=16;" vertex="1" parent="Udvxj7O8KsXDByOM07qp-1">
                    <mxGeometry x="66" y="310" width="110" height="50" as="geometry"/>
                </mxCell>
                <mxCell id="cCbDdbQNW0R_neSOV1xm-22" value="系統管理者" style="html=1;fillColor=#CCCCCC;fontColor=#000000;strokeColor=#000000;fontStyle=1;fontSize=16;" vertex="1" parent="Udvxj7O8KsXDByOM07qp-1">
                    <mxGeometry x="66" y="436" width="110" height="50" as="geometry"/>
                </mxCell>
                <mxCell id="cCbDdbQNW0R_neSOV1xm-23" value="個人資料(1)" style="html=1;fillColor=#CCCCCC;fontColor=#000000;strokeColor=#000000;fontStyle=1;fontSize=16;" vertex="1" parent="Udvxj7O8KsXDByOM07qp-1">
                    <mxGeometry x="276" y="367" width="110" height="50" as="geometry"/>
                </mxCell>
                <mxCell id="cCbDdbQNW0R_neSOV1xm-24" value="" style="endArrow=none;html=1;edgeStyle=orthogonalEdgeStyle;fontSize=16;fontColor=#000000;strokeColor=#000000;labelBackgroundColor=none;entryX=0.5;entryY=1;entryDx=0;entryDy=0;exitX=1;exitY=0.5;exitDx=0;exitDy=0;" edge="1" parent="Udvxj7O8KsXDByOM07qp-1" source="cCbDdbQNW0R_neSOV1xm-22" target="cCbDdbQNW0R_neSOV1xm-23">
                    <mxGeometry relative="1" as="geometry">
                        <mxPoint x="176" y="404.76" as="sourcePoint"/>
                        <mxPoint x="265" y="404.76" as="targetPoint"/>
                    </mxGeometry>
                </mxCell>
                <mxCell id="cCbDdbQNW0R_neSOV1xm-25" value="1" style="edgeLabel;resizable=0;html=1;align=left;verticalAlign=top;fontSize=16;fontColor=#000000;strokeColor=#000000;fillColor=#CCCCCC;labelBackgroundColor=none;" connectable="0" vertex="1" parent="cCbDdbQNW0R_neSOV1xm-24">
                    <mxGeometry x="-1" relative="1" as="geometry"/>
                </mxCell>
                <mxCell id="cCbDdbQNW0R_neSOV1xm-26" value="1" style="edgeLabel;resizable=0;html=1;align=right;verticalAlign=top;fontSize=16;fontColor=#000000;strokeColor=#000000;fillColor=#CCCCCC;labelBackgroundColor=none;" connectable="0" vertex="1" parent="cCbDdbQNW0R_neSOV1xm-24">
                    <mxGeometry x="1" relative="1" as="geometry"/>
                </mxCell>
                <mxCell id="cCbDdbQNW0R_neSOV1xm-27" value="擁有" style="edgeLabel;html=1;align=left;verticalAlign=bottom;resizable=0;points=[];fontSize=16;fontColor=#000000;labelBackgroundColor=none;fontStyle=1" vertex="1" connectable="0" parent="cCbDdbQNW0R_neSOV1xm-24">
                    <mxGeometry x="-0.2069" y="2" relative="1" as="geometry">
                        <mxPoint as="offset"/>
                    </mxGeometry>
                </mxCell>
                <mxCell id="cCbDdbQNW0R_neSOV1xm-28" value="" style="endArrow=none;html=1;edgeStyle=orthogonalEdgeStyle;fontSize=16;fontColor=#000000;strokeColor=#000000;labelBackgroundColor=none;exitX=1;exitY=0.5;exitDx=0;exitDy=0;entryX=0.5;entryY=0;entryDx=0;entryDy=0;" edge="1" parent="Udvxj7O8KsXDByOM07qp-1" source="cCbDdbQNW0R_neSOV1xm-21" target="cCbDdbQNW0R_neSOV1xm-23">
                    <mxGeometry relative="1" as="geometry">
                        <mxPoint x="186" y="545" as="sourcePoint"/>
                        <mxPoint x="275" y="545" as="targetPoint"/>
                    </mxGeometry>
                </mxCell>
                <mxCell id="cCbDdbQNW0R_neSOV1xm-29" value="1" style="edgeLabel;resizable=0;html=1;align=left;verticalAlign=top;fontSize=16;fontColor=#000000;strokeColor=#000000;fillColor=#CCCCCC;labelBackgroundColor=none;" connectable="0" vertex="1" parent="cCbDdbQNW0R_neSOV1xm-28">
                    <mxGeometry x="-1" relative="1" as="geometry"/>
                </mxCell>
                <mxCell id="cCbDdbQNW0R_neSOV1xm-30" value="1" style="edgeLabel;resizable=0;html=1;align=right;verticalAlign=bottom;fontSize=16;fontColor=#000000;strokeColor=#000000;fillColor=#CCCCCC;labelBackgroundColor=none;" connectable="0" vertex="1" parent="cCbDdbQNW0R_neSOV1xm-28">
                    <mxGeometry x="1" relative="1" as="geometry"/>
                </mxCell>
                <mxCell id="cCbDdbQNW0R_neSOV1xm-31" value="擁有" style="edgeLabel;html=1;align=left;verticalAlign=bottom;resizable=0;points=[];fontSize=16;fontColor=#000000;labelBackgroundColor=none;fontStyle=1" vertex="1" connectable="0" parent="cCbDdbQNW0R_neSOV1xm-28">
                    <mxGeometry x="-0.2069" y="2" relative="1" as="geometry">
                        <mxPoint as="offset"/>
                    </mxGeometry>
                </mxCell>
                <mxCell id="cCbDdbQNW0R_neSOV1xm-32" value="會員" style="html=1;fillColor=#CCCCCC;fontColor=#000000;strokeColor=#000000;fontStyle=1;fontSize=16;" vertex="1" parent="Udvxj7O8KsXDByOM07qp-1">
                    <mxGeometry x="66" y="560" width="110" height="50" as="geometry"/>
                </mxCell>
                <mxCell id="cCbDdbQNW0R_neSOV1xm-33" value="個人資料(2)" style="html=1;fillColor=#CCCCCC;fontColor=#000000;strokeColor=#000000;fontStyle=1;fontSize=16;" vertex="1" parent="Udvxj7O8KsXDByOM07qp-1">
                    <mxGeometry x="265" y="560" width="110" height="50" as="geometry"/>
                </mxCell>
                <mxCell id="cCbDdbQNW0R_neSOV1xm-34" value="會費" style="html=1;fillColor=#CCCCCC;fontColor=#000000;strokeColor=#000000;fontStyle=1;fontSize=16;" vertex="1" parent="Udvxj7O8KsXDByOM07qp-1">
                    <mxGeometry x="456" y="560" width="110" height="50" as="geometry"/>
                </mxCell>
                <mxCell id="cCbDdbQNW0R_neSOV1xm-35" value="" style="endArrow=none;html=1;edgeStyle=orthogonalEdgeStyle;fontSize=16;fontColor=#000000;strokeColor=#000000;labelBackgroundColor=none;exitX=1;exitY=0.5;exitDx=0;exitDy=0;entryX=0;entryY=0.5;entryDx=0;entryDy=0;" edge="1" parent="Udvxj7O8KsXDByOM07qp-1" source="cCbDdbQNW0R_neSOV1xm-32" target="cCbDdbQNW0R_neSOV1xm-33">
                    <mxGeometry relative="1" as="geometry">
                        <mxPoint x="181" y="584.89" as="sourcePoint"/>
                        <mxPoint x="271" y="584.89" as="targetPoint"/>
                    </mxGeometry>
                </mxCell>
                <mxCell id="cCbDdbQNW0R_neSOV1xm-36" value="1" style="edgeLabel;resizable=0;html=1;align=left;verticalAlign=top;fontSize=16;fontColor=#000000;strokeColor=#000000;fillColor=#CCCCCC;labelBackgroundColor=none;" connectable="0" vertex="1" parent="cCbDdbQNW0R_neSOV1xm-35">
                    <mxGeometry x="-1" relative="1" as="geometry"/>
                </mxCell>
                <mxCell id="cCbDdbQNW0R_neSOV1xm-37" value="1" style="edgeLabel;resizable=0;html=1;align=right;verticalAlign=top;fontSize=16;fontColor=#000000;strokeColor=#000000;fillColor=#CCCCCC;labelBackgroundColor=none;" connectable="0" vertex="1" parent="cCbDdbQNW0R_neSOV1xm-35">
                    <mxGeometry x="1" relative="1" as="geometry"/>
                </mxCell>
                <mxCell id="cCbDdbQNW0R_neSOV1xm-38" value="擁有" style="edgeLabel;html=1;align=left;verticalAlign=bottom;resizable=0;points=[];fontSize=16;fontColor=#000000;labelBackgroundColor=none;fontStyle=1" vertex="1" connectable="0" parent="cCbDdbQNW0R_neSOV1xm-35">
                    <mxGeometry x="-0.2069" y="2" relative="1" as="geometry">
                        <mxPoint as="offset"/>
                    </mxGeometry>
                </mxCell>
                <mxCell id="cCbDdbQNW0R_neSOV1xm-39" value="" style="endArrow=none;html=1;edgeStyle=orthogonalEdgeStyle;fontSize=16;fontColor=#000000;strokeColor=#000000;labelBackgroundColor=none;entryX=0;entryY=0.5;entryDx=0;entryDy=0;" edge="1" parent="Udvxj7O8KsXDByOM07qp-1" source="cCbDdbQNW0R_neSOV1xm-33" target="cCbDdbQNW0R_neSOV1xm-34">
                    <mxGeometry relative="1" as="geometry">
                        <mxPoint x="375" y="584.76" as="sourcePoint"/>
                        <mxPoint x="446" y="585" as="targetPoint"/>
                    </mxGeometry>
                </mxCell>
                <mxCell id="cCbDdbQNW0R_neSOV1xm-40" value="1" style="edgeLabel;resizable=0;html=1;align=left;verticalAlign=top;fontSize=16;fontColor=#000000;strokeColor=#000000;fillColor=#CCCCCC;labelBackgroundColor=none;" connectable="0" vertex="1" parent="cCbDdbQNW0R_neSOV1xm-39">
                    <mxGeometry x="-1" relative="1" as="geometry"/>
                </mxCell>
                <mxCell id="cCbDdbQNW0R_neSOV1xm-41" value="1" style="edgeLabel;resizable=0;html=1;align=right;verticalAlign=top;fontSize=16;fontColor=#000000;strokeColor=#000000;fillColor=#CCCCCC;labelBackgroundColor=none;" connectable="0" vertex="1" parent="cCbDdbQNW0R_neSOV1xm-39">
                    <mxGeometry x="1" relative="1" as="geometry"/>
                </mxCell>
                <mxCell id="cCbDdbQNW0R_neSOV1xm-42" value="擁有" style="edgeLabel;html=1;align=left;verticalAlign=bottom;resizable=0;points=[];fontSize=16;fontColor=#000000;labelBackgroundColor=none;fontStyle=1" vertex="1" connectable="0" parent="cCbDdbQNW0R_neSOV1xm-39">
                    <mxGeometry x="-0.2069" y="2" relative="1" as="geometry">
                        <mxPoint as="offset"/>
                    </mxGeometry>
                </mxCell>
                <mxCell id="cCbDdbQNW0R_neSOV1xm-43" value="付費明細" style="html=1;fillColor=#CCCCCC;fontColor=#000000;strokeColor=#000000;fontStyle=1;fontSize=16;" vertex="1" parent="Udvxj7O8KsXDByOM07qp-1">
                    <mxGeometry x="265" y="680" width="110" height="50" as="geometry"/>
                </mxCell>
                <mxCell id="cCbDdbQNW0R_neSOV1xm-44" value="" style="endArrow=none;html=1;edgeStyle=orthogonalEdgeStyle;fontSize=16;fontColor=#000000;strokeColor=#000000;labelBackgroundColor=none;entryX=0.5;entryY=0;entryDx=0;entryDy=0;exitX=0.5;exitY=1;exitDx=0;exitDy=0;align=left;verticalAlign=top;" edge="1" parent="Udvxj7O8KsXDByOM07qp-1" source="cCbDdbQNW0R_neSOV1xm-33" target="cCbDdbQNW0R_neSOV1xm-43">
                    <mxGeometry relative="1" as="geometry">
                        <mxPoint x="385" y="595" as="sourcePoint"/>
                        <mxPoint x="466" y="595" as="targetPoint"/>
                    </mxGeometry>
                </mxCell>
                <mxCell id="cCbDdbQNW0R_neSOV1xm-45" value="1" style="edgeLabel;resizable=0;html=1;align=left;verticalAlign=top;fontSize=16;fontColor=#000000;strokeColor=#000000;fillColor=#CCCCCC;labelBackgroundColor=none;" connectable="0" vertex="1" parent="cCbDdbQNW0R_neSOV1xm-44">
                    <mxGeometry x="-1" relative="1" as="geometry"/>
                </mxCell>
                <mxCell id="cCbDdbQNW0R_neSOV1xm-46" value="0..*" style="edgeLabel;resizable=0;html=1;align=left;verticalAlign=bottom;fontSize=16;fontColor=#000000;strokeColor=#000000;fillColor=#CCCCCC;labelBackgroundColor=none;" connectable="0" vertex="1" parent="cCbDdbQNW0R_neSOV1xm-44">
                    <mxGeometry x="1" relative="1" as="geometry"/>
                </mxCell>
                <mxCell id="cCbDdbQNW0R_neSOV1xm-47" value="擁有" style="edgeLabel;html=1;align=right;verticalAlign=bottom;resizable=0;points=[];fontSize=16;fontColor=#000000;labelBackgroundColor=none;fontStyle=1" vertex="1" connectable="0" parent="cCbDdbQNW0R_neSOV1xm-44">
                    <mxGeometry x="-0.2069" y="2" relative="1" as="geometry">
                        <mxPoint as="offset"/>
                    </mxGeometry>
                </mxCell>
                <mxCell id="cCbDdbQNW0R_neSOV1xm-48" value="" style="endArrow=none;html=1;edgeStyle=orthogonalEdgeStyle;fontSize=16;fontColor=#000000;strokeColor=#000000;labelBackgroundColor=none;entryX=0.5;entryY=1;entryDx=0;entryDy=0;exitX=1;exitY=0.5;exitDx=0;exitDy=0;" edge="1" parent="Udvxj7O8KsXDByOM07qp-1" source="cCbDdbQNW0R_neSOV1xm-43" target="cCbDdbQNW0R_neSOV1xm-34">
                    <mxGeometry relative="1" as="geometry">
                        <mxPoint x="385" y="595" as="sourcePoint"/>
                        <mxPoint x="466" y="595" as="targetPoint"/>
                    </mxGeometry>
                </mxCell>
                <mxCell id="cCbDdbQNW0R_neSOV1xm-49" value="1" style="edgeLabel;resizable=0;html=1;align=left;verticalAlign=top;fontSize=16;fontColor=#000000;strokeColor=#000000;fillColor=#CCCCCC;labelBackgroundColor=none;" connectable="0" vertex="1" parent="cCbDdbQNW0R_neSOV1xm-48">
                    <mxGeometry x="-1" relative="1" as="geometry"/>
                </mxCell>
                <mxCell id="cCbDdbQNW0R_neSOV1xm-50" value="1" style="edgeLabel;resizable=0;html=1;align=right;verticalAlign=top;fontSize=16;fontColor=#000000;strokeColor=#000000;fillColor=#CCCCCC;labelBackgroundColor=none;" connectable="0" vertex="1" parent="cCbDdbQNW0R_neSOV1xm-48">
                    <mxGeometry x="1" relative="1" as="geometry"/>
                </mxCell>
                <mxCell id="cCbDdbQNW0R_neSOV1xm-51" value="擁有" style="edgeLabel;html=1;align=left;verticalAlign=bottom;resizable=0;points=[];fontSize=16;fontColor=#000000;labelBackgroundColor=none;fontStyle=1" vertex="1" connectable="0" parent="cCbDdbQNW0R_neSOV1xm-48">
                    <mxGeometry x="-0.2069" y="2" relative="1" as="geometry">
                        <mxPoint as="offset"/>
                    </mxGeometry>
                </mxCell>
                <mxCell id="cCbDdbQNW0R_neSOV1xm-52" value="會員" style="html=1;fillColor=#CCCCCC;fontColor=#000000;strokeColor=#000000;fontStyle=1;fontSize=16;" vertex="1" parent="Udvxj7O8KsXDByOM07qp-1">
                    <mxGeometry x="537" y="40" width="110" height="50" as="geometry"/>
                </mxCell>
                <mxCell id="cCbDdbQNW0R_neSOV1xm-53" value="一般人員" style="html=1;fillColor=#CCCCCC;fontColor=#000000;strokeColor=#000000;fontStyle=1;fontSize=16;" vertex="1" parent="Udvxj7O8KsXDByOM07qp-1">
                    <mxGeometry x="287" y="40" width="110" height="50" as="geometry"/>
                </mxCell>
                <mxCell id="cCbDdbQNW0R_neSOV1xm-54" value="工作人員" style="html=1;fillColor=#CCCCCC;fontColor=#000000;strokeColor=#000000;fontStyle=1;fontSize=16;" vertex="1" parent="Udvxj7O8KsXDByOM07qp-1">
                    <mxGeometry x="287" y="119" width="110" height="50" as="geometry"/>
                </mxCell>
                <mxCell id="cCbDdbQNW0R_neSOV1xm-55" value="業務員" style="html=1;fillColor=#CCCCCC;fontColor=#000000;strokeColor=#000000;fontStyle=1;fontSize=16;" vertex="1" parent="Udvxj7O8KsXDByOM07qp-1">
                    <mxGeometry x="537" y="121" width="110" height="50" as="geometry"/>
                </mxCell>
                <mxCell id="cCbDdbQNW0R_neSOV1xm-56" value="系統管理員" style="html=1;fillColor=#CCCCCC;fontColor=#000000;strokeColor=#000000;fontStyle=1;fontSize=16;" vertex="1" parent="Udvxj7O8KsXDByOM07qp-1">
                    <mxGeometry x="537" y="201" width="110" height="50" as="geometry"/>
                </mxCell>
                <mxCell id="cCbDdbQNW0R_neSOV1xm-57" value="系統人員" style="html=1;fillColor=#CCCCCC;fontColor=#000000;strokeColor=#000000;fontStyle=1;fontSize=16;" vertex="1" parent="Udvxj7O8KsXDByOM07qp-1">
                    <mxGeometry x="287" y="201" width="110" height="50" as="geometry"/>
                </mxCell>
                <mxCell id="cCbDdbQNW0R_neSOV1xm-58" value="人員" style="html=1;fillColor=#CCCCCC;fontColor=#000000;strokeColor=#000000;fontStyle=1;fontSize=16;" vertex="1" parent="Udvxj7O8KsXDByOM07qp-1">
                    <mxGeometry x="66" y="121" width="110" height="50" as="geometry"/>
                </mxCell>
                <mxCell id="cCbDdbQNW0R_neSOV1xm-59" value="" style="endArrow=block;endSize=16;endFill=0;html=1;labelBackgroundColor=none;fontSize=16;fontColor=#000000;strokeColor=#000000;entryX=1;entryY=0.5;entryDx=0;entryDy=0;exitX=0;exitY=0.5;exitDx=0;exitDy=0;" edge="1" parent="Udvxj7O8KsXDByOM07qp-1" source="cCbDdbQNW0R_neSOV1xm-53" target="cCbDdbQNW0R_neSOV1xm-58">
                    <mxGeometry width="160" relative="1" as="geometry">
                        <mxPoint x="133" y="-136" as="sourcePoint"/>
                        <mxPoint x="54" y="-286" as="targetPoint"/>
                        <Array as="points">
                            <mxPoint x="227" y="65"/>
                            <mxPoint x="227" y="144"/>
                        </Array>
                    </mxGeometry>
                </mxCell>
                <mxCell id="cCbDdbQNW0R_neSOV1xm-60" value="" style="endArrow=block;endSize=16;endFill=0;html=1;labelBackgroundColor=none;fontSize=16;fontColor=#000000;strokeColor=#000000;exitX=0;exitY=0.5;exitDx=0;exitDy=0;" edge="1" parent="Udvxj7O8KsXDByOM07qp-1" source="cCbDdbQNW0R_neSOV1xm-54" target="cCbDdbQNW0R_neSOV1xm-58">
                    <mxGeometry width="160" relative="1" as="geometry">
                        <mxPoint x="297" y="75" as="sourcePoint"/>
                        <mxPoint x="177" y="144" as="targetPoint"/>
                        <Array as="points"/>
                    </mxGeometry>
                </mxCell>
                <mxCell id="cCbDdbQNW0R_neSOV1xm-61" value="" style="endArrow=block;endSize=16;endFill=0;html=1;labelBackgroundColor=none;fontSize=16;fontColor=#000000;strokeColor=#000000;exitX=0;exitY=0.5;exitDx=0;exitDy=0;" edge="1" parent="Udvxj7O8KsXDByOM07qp-1" source="cCbDdbQNW0R_neSOV1xm-57" target="cCbDdbQNW0R_neSOV1xm-58">
                    <mxGeometry width="160" relative="1" as="geometry">
                        <mxPoint x="297" y="75" as="sourcePoint"/>
                        <mxPoint x="186" y="156" as="targetPoint"/>
                        <Array as="points">
                            <mxPoint x="227" y="224"/>
                            <mxPoint x="227" y="146"/>
                        </Array>
                    </mxGeometry>
                </mxCell>
                <mxCell id="cCbDdbQNW0R_neSOV1xm-62" value="" style="endArrow=block;endSize=16;endFill=0;html=1;labelBackgroundColor=none;fontSize=16;fontColor=#000000;strokeColor=#000000;exitX=0;exitY=0.5;exitDx=0;exitDy=0;" edge="1" parent="Udvxj7O8KsXDByOM07qp-1" source="cCbDdbQNW0R_neSOV1xm-52" target="cCbDdbQNW0R_neSOV1xm-53">
                    <mxGeometry width="160" relative="1" as="geometry">
                        <mxPoint x="512" y="64.33000000000004" as="sourcePoint"/>
                        <mxPoint x="401" y="65.66734939759033" as="targetPoint"/>
                        <Array as="points"/>
                    </mxGeometry>
                </mxCell>
                <mxCell id="cCbDdbQNW0R_neSOV1xm-63" value="" style="endArrow=block;endSize=16;endFill=0;html=1;labelBackgroundColor=none;fontSize=16;fontColor=#000000;strokeColor=#000000;exitX=0;exitY=0.5;exitDx=0;exitDy=0;entryX=1;entryY=0.5;entryDx=0;entryDy=0;" edge="1" parent="Udvxj7O8KsXDByOM07qp-1" source="cCbDdbQNW0R_neSOV1xm-55" target="cCbDdbQNW0R_neSOV1xm-54">
                    <mxGeometry width="160" relative="1" as="geometry">
                        <mxPoint x="307" y="164" as="sourcePoint"/>
                        <mxPoint x="196" y="165.3373493975903" as="targetPoint"/>
                        <Array as="points"/>
                    </mxGeometry>
                </mxCell>
                <mxCell id="cCbDdbQNW0R_neSOV1xm-64" value="" style="endArrow=block;endSize=16;endFill=0;html=1;labelBackgroundColor=none;fontSize=16;fontColor=#000000;strokeColor=#000000;exitX=0;exitY=0.5;exitDx=0;exitDy=0;entryX=1;entryY=0.5;entryDx=0;entryDy=0;" edge="1" parent="Udvxj7O8KsXDByOM07qp-1" source="cCbDdbQNW0R_neSOV1xm-56" target="cCbDdbQNW0R_neSOV1xm-57">
                    <mxGeometry width="160" relative="1" as="geometry">
                        <mxPoint x="317" y="174" as="sourcePoint"/>
                        <mxPoint x="206" y="175.3373493975903" as="targetPoint"/>
                        <Array as="points"/>
                    </mxGeometry>
                </mxCell>
            </root>
        </mxGraphModel>
    </diagram>
</mxfile>